<svg width="18" height="18" viewBox="0 0 18 18" fill="none" xmlns="http://www.w3.org/2000/svg">
<path fill-rule="evenodd" clip-rule="evenodd" d="M8.1665 0.666504C4.02437 0.666504 0.666504 4.02437 0.666504 8.1665C0.666504 12.3086 4.02437 15.6665 8.1665 15.6665C9.93735 15.6665 11.5649 15.0528 12.8479 14.0264L15.9106 17.0891C16.236 17.4145 16.7637 17.4145 17.0891 17.0891C17.4145 16.7637 17.4145 16.236 17.0891 15.9106L14.0264 12.8479C15.0528 11.5649 15.6665 9.93735 15.6665 8.1665C15.6665 4.02437 12.3086 0.666504 8.1665 0.666504ZM2.33317 8.1665C2.33317 4.94484 4.94484 2.33317 8.1665 2.33317C11.3882 2.33317 13.9998 4.94484 13.9998 8.1665C13.9998 11.3882 11.3882 13.9998 8.1665 13.9998C4.94484 13.9998 2.33317 11.3882 2.33317 8.1665Z" fill="#667185"/>
</svg>
