<svg width="34" height="33" viewBox="0 0 34 33" fill="none" xmlns="http://www.w3.org/2000/svg">
<path fill-rule="evenodd" clip-rule="evenodd" d="M16.6004 3.16406L7.96837 3.68463C5.91261 3.80861 4.09882 5.02531 3.26227 6.84151L2.50792 8.47924C1.69426 10.2457 1.93494 12.2988 3.13699 13.8453L3.4939 14.3045L3.98559 24.7422C4.11978 27.5906 6.55213 29.8333 9.50717 29.8333H23.6936C26.6487 29.8333 29.081 27.5906 29.2152 24.7422L29.6979 14.4954C31.0125 13.3096 31.4969 11.4598 30.8659 9.78536L29.8813 7.17284C29.13 5.17927 27.2258 3.80485 25.0316 3.67252L16.6004 3.16406ZM6.74638 24.6211L6.32793 15.7383C7.51159 15.8728 8.73331 15.6076 9.7669 14.9427L9.91042 14.8504C10.6908 14.3484 11.6901 14.2884 12.529 14.6931L14.1285 15.4648C15.6846 16.2155 17.5162 16.2155 19.0723 15.4648L20.6718 14.6931C21.5107 14.2884 22.51 14.3484 23.2904 14.8504L23.4339 14.9427C24.4675 15.6076 25.6892 15.8728 26.8729 15.7383L26.4544 24.6211C26.3873 26.0453 25.1712 27.1667 23.6936 27.1667H20.8658L21.1451 23.9325C21.3667 21.367 19.2685 19.1667 16.6004 19.1667C13.9324 19.1667 11.8341 21.367 12.0557 23.9325L12.335 27.1667H9.50717C8.02965 27.1667 6.81347 26.0453 6.74638 24.6211ZM24.9669 12.7239C25.7579 13.2328 26.7884 13.2328 27.5794 12.7239C28.2659 12.2823 28.5506 11.4449 28.2686 10.6967L27.2841 8.08415C26.9084 7.08737 25.9563 6.40016 24.8592 6.334L16.6004 5.83593L8.14076 6.34611C7.11288 6.4081 6.20599 7.01644 5.78771 7.92455L5.03336 9.56227C4.62653 10.4455 4.74687 11.4721 5.3479 12.2453L5.80152 12.8289C6.56424 13.2299 7.50169 13.195 8.23391 12.7239L8.37743 12.6316C9.983 11.5988 12.039 11.4753 13.7649 12.308L15.3645 13.0797C16.1425 13.455 17.0583 13.455 17.8363 13.0797L19.4359 12.308C21.1618 11.4753 23.2178 11.5988 24.8234 12.6316L24.9669 12.7239ZM18.391 23.7111L18.0926 27.1667H15.1082L14.8098 23.7111C14.7225 22.7003 15.5492 21.8333 16.6004 21.8333C17.6516 21.8333 18.4783 22.7003 18.391 23.7111Z" fill="#F56630"/>
</svg>
